<svg xmlns="http://www.w3.org/2000/svg" version="1.1" xmlns:xlink="http://www.w3.org/1999/xlink" width="1000" height="1000"><metadata><RDF xmlns:rdf="http://www.w3.org/1999/02/22-rdf-syntax-ns#" xmlns:dc="http://purl.org/dc/elements/1.1/"><Description><creator>RealFaviconGenerator</creator><source>https://realfavicongenerator.net</source></Description></RDF></metadata><g id="light-icon"><svg xmlns="http://www.w3.org/2000/svg" version="1.1" xmlns:xlink="http://www.w3.org/1999/xlink" width="1000" height="1000"><g><g transform="matrix(15.625,0,0,15.625,0,0)"><svg xmlns="http://www.w3.org/2000/svg" width="64" height="64" viewBox="0 0 64 64" role="img"><title>makemycv.ae icon</title><desc>Ascending two-peak mark on a navy rounded square: a short cream peak and a tall gold peak.</desc><rect x="1" y="1" width="62" height="62" rx="15" fill="#1B2A4A"></rect><path d="M10 48 L21 33 L30 48 Z" fill="#F4EEE0"></path><path d="M28 48 L42 15 L54 48 Z" fill="#C49A48"></path></svg></g></g></svg></g><g id="dark-icon"><svg xmlns="http://www.w3.org/2000/svg" version="1.1" xmlns:xlink="http://www.w3.org/1999/xlink" width="1000" height="1000"><g clip-path="url(#SvgjsClipPath1458)"><rect width="1000" height="1000" fill="#5b77ef"></rect><g transform="matrix(12.5,0,0,12.5,100,100)"><svg xmlns="http://www.w3.org/2000/svg" width="64" height="64" viewBox="0 0 64 64" role="img"><title>makemycv.ae icon</title><desc>Ascending two-peak mark on a navy rounded square: a short cream peak and a tall gold peak.</desc><rect x="1" y="1" width="62" height="62" rx="15" fill="#1B2A4A"></rect><path d="M10 48 L21 33 L30 48 Z" fill="#F4EEE0"></path><path d="M28 48 L42 15 L54 48 Z" fill="#C49A48"></path></svg></g></g><defs><clipPath id="SvgjsClipPath1458"><rect width="1000" height="1000" x="0" y="0" rx="350" ry="350"></rect></clipPath></defs></svg></g></svg>