<svg xmlns="http://www.w3.org/2000/svg" width="240" height="190" viewBox="0 0 240 190" role="img">
  <title>makemycv.ae stacked logo</title>
  <desc>The ascending two-peak icon above the wordmark makemycv dot ae. Wordmark outlined from Poppins SemiBold (OFL) so it renders identically on every device. </desc>
  <g transform="translate(74,18) scale(1.4375)">
    <rect x="1" y="1" width="62" height="62" rx="15" fill="#1B2A4A"></rect>
    <path d="M10 48 L21 33 L30 48 Z" fill="#F4EEE0"></path>
    <path d="M28 48 L42 15 L54 48 Z" fill="#C49A48"></path>
  </g>
  <path d="M31.25 132.02Q34.51 132.02 36.51 134.02Q38.51 136.02 38.51 139.60L38.51 139.60L38.51 150L34.03 150L34.03 140.21Q34.03 138.13 32.98 137.02Q31.92 135.92 30.10 135.92L30.10 135.92Q28.27 135.92 27.20 137.02Q26.13 138.13 26.13 140.21L26.13 140.21L26.13 150L21.65 150L21.65 140.21Q21.65 138.13 20.59 137.02Q19.54 135.92 17.71 135.92L17.71 135.92Q15.86 135.92 14.78 137.02Q13.71 138.13 13.71 140.21L13.71 140.21L13.71 150L9.23 150L9.23 132.27L13.71 132.27L13.71 134.42Q14.58 133.30 15.94 132.66Q17.30 132.02 18.93 132.02L18.93 132.02Q21.01 132.02 22.64 132.90Q24.27 133.78 25.17 135.41L25.17 135.41Q26.03 133.87 27.68 132.94Q29.33 132.02 31.25 132.02L31.25 132.02ZM40.82 141.07Q40.82 138.38 41.89 136.30Q42.96 134.22 44.80 133.10Q46.64 131.98 48.91 131.98L48.91 131.98Q50.90 131.98 52.38 132.78Q53.87 133.58 54.77 134.80L54.77 134.80L54.77 132.27L59.28 132.27L59.28 150L54.77 150L54.77 147.41Q53.90 148.66 52.38 149.47Q50.86 150.29 48.88 150.29L48.88 150.29Q46.64 150.29 44.80 149.14Q42.96 147.98 41.89 145.89Q40.82 143.79 40.82 141.07L40.82 141.07ZM54.77 141.14Q54.77 139.50 54.13 138.34Q53.49 137.17 52.40 136.54Q51.31 135.92 50.06 135.92L50.06 135.92Q48.82 135.92 47.76 136.53Q46.70 137.14 46.05 138.30Q45.39 139.47 45.39 141.07L45.39 141.07Q45.39 142.67 46.05 143.87Q46.70 145.07 47.78 145.71Q48.85 146.35 50.06 146.35L50.06 146.35Q51.31 146.35 52.40 145.73Q53.49 145.10 54.13 143.94Q54.77 142.77 54.77 141.14L54.77 141.14ZM79.18 150L73.36 150L67.34 142.45L67.34 150L62.86 150L62.86 126.32L67.34 126.32L67.34 139.79L73.30 132.27L79.12 132.27L71.31 141.17L79.18 150ZM97.23 140.75Q97.23 141.71 97.10 142.48L97.10 142.48L84.14 142.48Q84.30 144.40 85.49 145.49Q86.67 146.58 88.40 146.58L88.40 146.58Q90.90 146.58 91.95 144.43L91.95 144.43L96.78 144.43Q96.02 146.99 93.84 148.64Q91.66 150.29 88.50 150.29L88.50 150.29Q85.94 150.29 83.90 149.15Q81.87 148.02 80.74 145.94Q79.60 143.86 79.60 141.14L79.60 141.14Q79.60 138.38 80.72 136.30Q81.84 134.22 83.86 133.10Q85.87 131.98 88.50 131.98L88.50 131.98Q91.02 131.98 93.02 133.07Q95.02 134.16 96.13 136.16Q97.23 138.16 97.23 140.75L97.23 140.75ZM84.18 139.47L92.59 139.47Q92.56 137.74 91.34 136.70Q90.13 135.66 88.37 135.66L88.37 135.66Q86.70 135.66 85.57 136.67Q84.43 137.68 84.18 139.47L84.18 139.47ZM121.71 132.02Q124.98 132.02 126.98 134.02Q128.98 136.02 128.98 139.60L128.98 139.60L128.98 150L124.50 150L124.50 140.21Q124.50 138.13 123.44 137.02Q122.38 135.92 120.56 135.92L120.56 135.92Q118.74 135.92 117.66 137.02Q116.59 138.13 116.59 140.21L116.59 140.21L116.59 150L112.11 150L112.11 140.21Q112.11 138.13 111.06 137.02Q110.00 135.92 108.18 135.92L108.18 135.92Q106.32 135.92 105.25 137.02Q104.18 138.13 104.18 140.21L104.18 140.21L104.18 150L99.70 150L99.70 132.27L104.18 132.27L104.18 134.42Q105.04 133.30 106.40 132.66Q107.76 132.02 109.39 132.02L109.39 132.02Q111.47 132.02 113.10 132.90Q114.74 133.78 115.63 135.41L115.63 135.41Q116.50 133.87 118.14 132.94Q119.79 132.02 121.71 132.02L121.71 132.02ZM144.62 132.27L149.39 132.27L138.42 158.38L133.65 158.38L137.49 149.55L130.38 132.27L135.41 132.27L139.98 144.66L144.62 132.27ZM149.84 141.14Q149.84 138.38 150.96 136.32Q152.08 134.26 154.06 133.12Q156.05 131.98 158.61 131.98L158.61 131.98Q161.90 131.98 164.06 133.63Q166.22 135.28 166.96 138.26L166.96 138.26L162.13 138.26Q161.74 137.10 160.83 136.45Q159.92 135.79 158.58 135.79L158.58 135.79Q156.66 135.79 155.54 137.18Q154.42 138.58 154.42 141.14L154.42 141.14Q154.42 143.66 155.54 145.06Q156.66 146.45 158.58 146.45L158.58 146.45Q161.30 146.45 162.13 144.02L162.13 144.02L166.96 144.02Q166.22 146.90 164.05 148.59Q161.87 150.29 158.61 150.29L158.61 150.29Q156.05 150.29 154.06 149.15Q152.08 148.02 150.96 145.95Q149.84 143.89 149.84 141.14L149.84 141.14ZM172.37 132.27L176.85 145.87L181.33 132.27L186.10 132.27L179.54 150L174.10 150L167.57 132.27L172.37 132.27Z" fill="#1B2A4A"></path>
  <path d="M189.81 150.22Q188.59 150.22 187.81 149.47Q187.02 148.72 187.02 147.60L187.02 147.60Q187.02 146.48 187.81 145.73Q188.59 144.98 189.81 144.98L189.81 144.98Q190.99 144.98 191.76 145.73Q192.53 146.48 192.53 147.60L192.53 147.60Q192.53 148.72 191.76 149.47Q190.99 150.22 189.81 150.22L189.81 150.22ZM194.19 141.07Q194.19 138.38 195.26 136.30Q196.34 134.22 198.18 133.10Q200.02 131.98 202.29 131.98L202.29 131.98Q204.27 131.98 205.76 132.78Q207.25 133.58 208.14 134.80L208.14 134.80L208.14 132.27L212.66 132.27L212.66 150L208.14 150L208.14 147.41Q207.28 148.66 205.76 149.47Q204.24 150.29 202.26 150.29L202.26 150.29Q200.02 150.29 198.18 149.14Q196.34 147.98 195.26 145.89Q194.19 143.79 194.19 141.07L194.19 141.07ZM208.14 141.14Q208.14 139.50 207.50 138.34Q206.86 137.17 205.78 136.54Q204.69 135.92 203.44 135.92L203.44 135.92Q202.19 135.92 201.14 136.53Q200.08 137.14 199.42 138.30Q198.77 139.47 198.77 141.07L198.77 141.07Q198.77 142.67 199.42 143.87Q200.08 145.07 201.15 145.71Q202.22 146.35 203.44 146.35L203.44 146.35Q204.69 146.35 205.78 145.73Q206.86 145.10 207.50 143.94Q208.14 142.77 208.14 141.14L208.14 141.14ZM232.72 140.75Q232.72 141.71 232.59 142.48L232.59 142.48L219.63 142.48Q219.79 144.40 220.98 145.49Q222.16 146.58 223.89 146.58L223.89 146.58Q226.38 146.58 227.44 144.43L227.44 144.43L232.27 144.43Q231.50 146.99 229.33 148.64Q227.15 150.29 223.98 150.29L223.98 150.29Q221.42 150.29 219.39 149.15Q217.36 148.02 216.22 145.94Q215.09 143.86 215.09 141.14L215.09 141.14Q215.09 138.38 216.21 136.30Q217.33 134.22 219.34 133.10Q221.36 131.98 223.98 131.98L223.98 131.98Q226.51 131.98 228.51 133.07Q230.51 134.16 231.62 136.16Q232.72 138.16 232.72 140.75L232.72 140.75ZM219.66 139.47L228.08 139.47Q228.05 137.74 226.83 136.70Q225.62 135.66 223.86 135.66L223.86 135.66Q222.19 135.66 221.06 136.67Q219.92 137.68 219.66 139.47L219.66 139.47Z" fill="#C49A48"></path>
</svg>