<svg xmlns="http://www.w3.org/2000/svg" width="399" height="100" viewBox="0 0 399 100" role="img">
  <title>makemycv.ae horizontal logo</title>
  <desc>The ascending two-peak icon next to the wordmark makemycv dot ae. Wordmark outlined from Poppins SemiBold (OFL) so it renders identically on every device. </desc>
  <g transform="translate(14,12) scale(1.1875)">
    <rect x="1" y="1" width="62" height="62" rx="15" fill="#1B2A4A"></rect>
    <path d="M10 48 L21 33 L30 48 Z" fill="#F4EEE0"></path>
    <path d="M28 48 L42 15 L54 48 Z" fill="#C49A48"></path>
  </g>
  <path d="M134.28 43.52Q138.36 43.52 140.86 46.02Q143.36 48.52 143.36 53L143.36 53L143.36 66L137.76 66L137.76 53.76Q137.76 51.16 136.44 49.78Q135.12 48.40 132.84 48.40L132.84 48.40Q130.56 48.40 129.22 49.78Q127.88 51.16 127.88 53.76L127.88 53.76L127.88 66L122.28 66L122.28 53.76Q122.28 51.16 120.96 49.78Q119.64 48.40 117.36 48.40L117.36 48.40Q115.04 48.40 113.70 49.78Q112.36 51.16 112.36 53.76L112.36 53.76L112.36 66L106.76 66L106.76 43.84L112.36 43.84L112.36 46.52Q113.44 45.12 115.14 44.32Q116.84 43.52 118.88 43.52L118.88 43.52Q121.48 43.52 123.52 44.62Q125.56 45.72 126.68 47.76L126.68 47.76Q127.76 45.84 129.82 44.68Q131.88 43.52 134.28 43.52L134.28 43.52ZM146.24 54.84Q146.24 51.48 147.58 48.88Q148.92 46.28 151.22 44.88Q153.52 43.48 156.36 43.48L156.36 43.48Q158.84 43.48 160.70 44.48Q162.56 45.48 163.68 47L163.68 47L163.68 43.84L169.32 43.84L169.32 66L163.68 66L163.68 62.76Q162.60 64.32 160.70 65.34Q158.80 66.36 156.32 66.36L156.32 66.36Q153.52 66.36 151.22 64.92Q148.92 63.48 147.58 60.86Q146.24 58.24 146.24 54.84L146.24 54.84ZM163.68 54.92Q163.68 52.88 162.88 51.42Q162.08 49.96 160.72 49.18Q159.36 48.40 157.80 48.40L157.80 48.40Q156.24 48.40 154.92 49.16Q153.60 49.92 152.78 51.38Q151.96 52.84 151.96 54.84L151.96 54.84Q151.96 56.84 152.78 58.34Q153.60 59.84 154.94 60.64Q156.28 61.44 157.80 61.44L157.80 61.44Q159.36 61.44 160.72 60.66Q162.08 59.88 162.88 58.42Q163.68 56.96 163.68 54.92L163.68 54.92ZM194.20 66L186.92 66L179.40 56.56L179.40 66L173.80 66L173.80 36.40L179.40 36.40L179.40 53.24L186.84 43.84L194.12 43.84L184.36 54.96L194.20 66ZM216.76 54.44Q216.76 55.64 216.60 56.60L216.60 56.60L200.40 56.60Q200.60 59 202.08 60.36Q203.56 61.72 205.72 61.72L205.72 61.72Q208.84 61.72 210.16 59.04L210.16 59.04L216.20 59.04Q215.24 62.24 212.52 64.30Q209.80 66.36 205.84 66.36L205.84 66.36Q202.64 66.36 200.10 64.94Q197.56 63.52 196.14 60.92Q194.72 58.32 194.72 54.92L194.72 54.92Q194.72 51.48 196.12 48.88Q197.52 46.28 200.04 44.88Q202.56 43.48 205.84 43.48L205.84 43.48Q209.00 43.48 211.50 44.84Q214.00 46.20 215.38 48.70Q216.76 51.20 216.76 54.44L216.76 54.44ZM200.44 52.84L210.96 52.84Q210.92 50.68 209.40 49.38Q207.88 48.08 205.68 48.08L205.68 48.08Q203.60 48.08 202.18 49.34Q200.76 50.60 200.44 52.84L200.44 52.84ZM247.36 43.52Q251.44 43.52 253.94 46.02Q256.44 48.52 256.44 53L256.44 53L256.44 66L250.84 66L250.84 53.76Q250.84 51.16 249.52 49.78Q248.20 48.40 245.92 48.40L245.92 48.40Q243.64 48.40 242.30 49.78Q240.96 51.16 240.96 53.76L240.96 53.76L240.96 66L235.36 66L235.36 53.76Q235.36 51.16 234.04 49.78Q232.72 48.40 230.44 48.40L230.44 48.40Q228.12 48.40 226.78 49.78Q225.44 51.16 225.44 53.76L225.44 53.76L225.44 66L219.84 66L219.84 43.84L225.44 43.84L225.44 46.52Q226.52 45.12 228.22 44.32Q229.92 43.52 231.96 43.52L231.96 43.52Q234.56 43.52 236.60 44.62Q238.64 45.72 239.76 47.76L239.76 47.76Q240.84 45.84 242.90 44.68Q244.96 43.52 247.36 43.52L247.36 43.52ZM276.00 43.84L281.96 43.84L268.24 76.48L262.28 76.48L267.08 65.44L258.20 43.84L264.48 43.84L270.20 59.32L276.00 43.84ZM282.52 54.92Q282.52 51.48 283.92 48.90Q285.32 46.32 287.80 44.90Q290.28 43.48 293.48 43.48L293.48 43.48Q297.60 43.48 300.30 45.54Q303.00 47.60 303.92 51.32L303.92 51.32L297.88 51.32Q297.40 49.88 296.26 49.06Q295.12 48.24 293.44 48.24L293.44 48.24Q291.04 48.24 289.64 49.98Q288.24 51.72 288.24 54.92L288.24 54.92Q288.24 58.08 289.64 59.82Q291.04 61.56 293.44 61.56L293.44 61.56Q296.84 61.56 297.88 58.52L297.88 58.52L303.92 58.52Q303.00 62.12 300.28 64.24Q297.56 66.36 293.48 66.36L293.48 66.36Q290.28 66.36 287.80 64.94Q285.32 63.52 283.92 60.94Q282.52 58.36 282.52 54.92L282.52 54.92ZM310.68 43.84L316.28 60.84L321.88 43.84L327.84 43.84L319.64 66L312.84 66L304.68 43.84L310.68 43.84Z" fill="#1B2A4A"></path>
  <path d="M332.48 66.28Q330.96 66.28 329.98 65.34Q329 64.40 329 63L329 63Q329 61.60 329.98 60.66Q330.96 59.72 332.48 59.72L332.48 59.72Q333.96 59.72 334.92 60.66Q335.88 61.60 335.88 63L335.88 63Q335.88 64.40 334.92 65.34Q333.96 66.28 332.48 66.28L332.48 66.28ZM337.96 54.84Q337.96 51.48 339.30 48.88Q340.64 46.28 342.94 44.88Q345.24 43.48 348.08 43.48L348.08 43.48Q350.56 43.48 352.42 44.48Q354.28 45.48 355.40 47L355.40 47L355.40 43.84L361.04 43.84L361.04 66L355.40 66L355.40 62.76Q354.32 64.32 352.42 65.34Q350.52 66.36 348.04 66.36L348.04 66.36Q345.24 66.36 342.94 64.92Q340.64 63.48 339.30 60.86Q337.96 58.24 337.96 54.84L337.96 54.84ZM355.40 54.92Q355.40 52.88 354.60 51.42Q353.80 49.96 352.44 49.18Q351.08 48.40 349.52 48.40L349.52 48.40Q347.96 48.40 346.64 49.16Q345.32 49.92 344.50 51.38Q343.68 52.84 343.68 54.84L343.68 54.84Q343.68 56.84 344.50 58.34Q345.32 59.84 346.66 60.64Q348 61.44 349.52 61.44L349.52 61.44Q351.08 61.44 352.44 60.66Q353.80 59.88 354.60 58.42Q355.40 56.96 355.40 54.92L355.40 54.92ZM386.12 54.44Q386.12 55.64 385.96 56.60L385.96 56.60L369.76 56.60Q369.96 59 371.44 60.36Q372.92 61.72 375.08 61.72L375.08 61.72Q378.20 61.72 379.52 59.04L379.52 59.04L385.56 59.04Q384.60 62.24 381.88 64.30Q379.16 66.36 375.20 66.36L375.20 66.36Q372 66.36 369.46 64.94Q366.92 63.52 365.50 60.92Q364.08 58.32 364.08 54.92L364.08 54.92Q364.08 51.48 365.48 48.88Q366.88 46.28 369.40 44.88Q371.92 43.48 375.20 43.48L375.20 43.48Q378.36 43.48 380.86 44.84Q383.36 46.20 384.74 48.70Q386.12 51.20 386.12 54.44L386.12 54.44ZM369.80 52.84L380.32 52.84Q380.28 50.68 378.76 49.38Q377.24 48.08 375.04 48.08L375.04 48.08Q372.96 48.08 371.54 49.34Q370.12 50.60 369.80 52.84L369.80 52.84Z" fill="#C49A48"></path>
</svg>